<svg width="304" height="41" viewBox="0 0 304 41" fill="none" xmlns="http://www.w3.org/2000/svg">
<mask id="mask0_1_88" style="mask-type:luminance" maskUnits="userSpaceOnUse" x="0" y="0" width="304" height="41">
<path d="M304 0.125H0V40.125H304V0.125Z" fill="white"/>
</mask>
<g mask="url(#mask0_1_88)">
<path d="M88.6189 13.2114C89.1252 13.3125 89.3748 13.5147 89.3748 13.831C89.3482 14.1216 89.2743 14.4057 89.1561 14.6719L86.3221 22.2268L83.3923 14.5395C83.3013 14.3367 83.2404 14.1215 83.2115 13.9007C83.2115 13.5652 83.4492 13.3378 83.9235 13.2114V12.8698H78.7079V13.2114C79.1762 13.3065 79.4139 13.5147 79.4139 13.8371C79.3793 14.065 79.312 14.2867 79.2142 14.495L76.1405 22.2207L73.3046 14.5334C73.2103 14.3107 73.1533 14.0737 73.1358 13.832C73.1358 13.5096 73.3545 13.3014 73.7978 13.2064V12.8638H68.8169V13.2054C69.0918 13.2456 69.345 13.3793 69.5349 13.5844C69.7728 13.9135 69.9582 14.2784 70.0841 14.6658L74.2003 25.3791C74.3343 25.6825 74.4329 26.0006 74.4939 26.3271C74.4939 26.7193 74.2562 26.9598 73.7879 27.0478V27.3894H78.4103V27.0538C77.8921 26.9214 77.6294 26.6869 77.6294 26.3645C77.6838 26.0817 77.7808 25.809 77.917 25.556L81.1964 17.1602L84.3629 25.3852C84.5173 25.6876 84.6267 26.0115 84.6875 26.3464C84.6875 26.7446 84.4438 26.979 83.9505 27.0609V27.4025H88.6289V27.0548C88.1296 26.973 87.8789 26.7516 87.8789 26.404C87.9287 26.0504 88.0276 25.7057 88.1725 25.3801L92.2827 14.6668C92.4095 14.2867 92.5858 13.9254 92.807 13.5925C93.0076 13.3968 93.259 13.263 93.5319 13.2064V12.8638H88.5989V13.2114H88.6189Z" fill="white"/>
<path d="M112.473 13.2142C112.671 13.2485 112.854 13.3434 112.997 13.4861C113.105 13.6266 113.158 13.802 113.147 13.9793V18.6618H104.877V13.9773C104.865 13.7998 104.918 13.6241 105.027 13.4841C105.171 13.3437 105.354 13.2492 105.551 13.2122V12.8706H101.073V13.2142C101.271 13.2541 101.453 13.3505 101.598 13.4922C101.705 13.6303 101.758 13.8038 101.747 13.9793V26.2865C101.759 26.464 101.706 26.6397 101.598 26.7797C101.45 26.9177 101.269 27.0136 101.073 27.0576V27.3992H105.557V27.0516C105.361 27.016 105.18 26.9212 105.039 26.7797C104.931 26.6392 104.878 26.4638 104.889 26.2865V21.0511H113.159V26.2855C113.171 26.463 113.118 26.6387 113.009 26.7787C112.866 26.9179 112.686 27.0123 112.491 27.0506V27.3922H116.97V27.0506C116.773 27.0092 116.591 26.9129 116.445 26.7726C116.339 26.6318 116.288 26.4561 116.302 26.2794V13.9773C116.291 13.8028 116.342 13.63 116.445 13.4902C116.593 13.3522 116.774 13.2563 116.97 13.2122V12.8706H112.491V13.2142H112.473Z" fill="white"/>
<path d="M125.996 13.2142C126.193 13.2556 126.374 13.3519 126.52 13.4922C126.627 13.6303 126.681 13.8038 126.67 13.9793V26.2733C126.683 26.4528 126.629 26.6307 126.52 26.7726C126.372 26.9106 126.192 27.0065 125.996 27.0506V27.3922H130.479V27.0506C130.283 27.015 130.103 26.9202 129.961 26.7787C129.852 26.6344 129.798 26.4547 129.811 26.2733V13.9773C129.8 13.8009 129.851 13.6263 129.955 13.4841C130.099 13.3422 130.281 13.2474 130.479 13.2122V12.8706H125.996V13.2142Z" fill="white"/>
<path d="M151.988 12.7245C151.846 12.8303 151.671 12.8818 151.495 12.87H139.457C139.284 12.8811 139.114 12.8295 138.976 12.7245C138.84 12.5737 138.744 12.3914 138.695 12.1938H138.358V15.9496H138.696C138.735 15.7476 138.831 15.5612 138.971 15.4119C139.109 15.3077 139.28 15.2562 139.452 15.2663H143.906V26.2828C143.919 26.4623 143.865 26.6402 143.756 26.7821C143.61 26.9224 143.428 27.0187 143.232 27.0601V27.4017H147.71V27.051C147.513 27.0096 147.332 26.9133 147.186 26.773C147.077 26.6311 147.023 26.4532 147.036 26.2737V15.2663H151.484C151.66 15.2545 151.835 15.3061 151.977 15.4119C152.118 15.5603 152.214 15.7471 152.252 15.9496H152.589V12.1938H152.252C152.217 12.3928 152.125 12.5772 151.988 12.7245Z" fill="white"/>
<path d="M174 24.8504C173.863 24.9593 173.692 25.0133 173.518 25.002H164.292V21.026H170.114C170.29 21.0138 170.463 21.0678 170.602 21.1776C170.739 21.3236 170.834 21.5051 170.876 21.7021H171.214V18.0293H170.876C170.835 18.2286 170.74 18.4124 170.602 18.5599C170.462 18.6676 170.289 18.7194 170.114 18.7054H164.292V15.26H173.269C173.442 15.2466 173.615 15.3008 173.75 15.4116C173.889 15.5591 173.984 15.7429 174.025 15.9422H174.362V12.1875H174.025C173.984 12.3868 173.889 12.5706 173.75 12.7181C173.614 12.827 173.442 12.881 173.269 12.8697H160.487V13.2113C160.684 13.2527 160.865 13.349 161.011 13.4893C161.12 13.6311 161.174 13.8091 161.161 13.9885V26.2785C161.174 26.458 161.12 26.6359 161.011 26.7778C160.864 26.9158 160.683 27.0117 160.487 27.0557V27.3973H173.523C173.697 27.3839 173.869 27.4381 174.005 27.5489C174.141 27.6981 174.236 27.8812 174.279 28.0796H174.617V24.3259H174.279C174.233 24.5226 174.137 24.7034 174 24.8504Z" fill="white"/>
<path d="M187.074 27.6452C187.123 27.6452 187.173 27.6392 187.223 27.6392H186.905C186.961 27.6446 187.017 27.6466 187.074 27.6452Z" fill="white"/>
<path d="M216.663 13.2142C216.861 13.2485 217.044 13.3434 217.187 13.4861C217.292 13.6274 217.344 13.8027 217.331 13.9793V18.6618H209.06V13.9773C209.048 13.7998 209.102 13.6241 209.21 13.4841C209.355 13.3437 209.537 13.2492 209.735 13.2122V12.8706H205.257V13.2142C205.454 13.2556 205.635 13.3519 205.781 13.4922C205.889 13.6303 205.942 13.8038 205.931 13.9793V26.2865C205.943 26.464 205.89 26.6397 205.781 26.7797C205.634 26.9177 205.453 27.0136 205.257 27.0576V27.3992H209.735V27.0516C209.54 27.016 209.359 26.9212 209.217 26.7797C209.11 26.6392 209.056 26.4638 209.067 26.2865V21.0511H217.34V26.2855C217.352 26.463 217.298 26.6387 217.19 26.7787C217.047 26.9179 216.867 27.0123 216.672 27.0506V27.3922H221.15V27.0506C220.953 27.0092 220.772 26.9129 220.626 26.7726C220.52 26.6318 220.468 26.4561 220.482 26.2794V13.9773C220.471 13.8028 220.522 13.63 220.626 13.4902C220.773 13.3522 220.954 13.2562 221.15 13.2122V12.8706H216.672V13.2142H216.663Z" fill="white"/>
<path d="M230.187 13.2142C230.383 13.2556 230.565 13.3519 230.711 13.4922C230.818 13.6303 230.872 13.8038 230.861 13.9793V26.2733C230.874 26.4528 230.82 26.6307 230.711 26.7726C230.563 26.9106 230.382 27.0065 230.187 27.0506V27.3922H234.665V27.0506C234.469 27.015 234.289 26.9202 234.147 26.7787C234.036 26.6352 233.98 26.4554 233.991 26.2733V13.9773C233.979 13.7998 234.032 13.6241 234.141 13.4841C234.286 13.3437 234.468 13.2492 234.665 13.2122V12.8706H230.187V13.2142Z" fill="white"/>
<path d="M257.214 24.8504C257.078 24.9593 256.906 25.0133 256.733 25.002H247.501V21.026H253.323C253.498 21.0138 253.672 21.0678 253.81 21.1776C253.947 21.3236 254.042 21.5051 254.084 21.7021H254.422V18.0293H254.084C254.044 18.2286 253.948 18.4124 253.81 18.5599C253.671 18.6676 253.497 18.7194 253.323 18.7054H247.501V15.26H256.477C256.651 15.2466 256.823 15.3008 256.958 15.4116C257.097 15.5591 257.192 15.7429 257.233 15.9422H257.571V12.1875H257.238C257.197 12.3868 257.102 12.5706 256.963 12.7181C256.827 12.827 256.656 12.881 256.482 12.8697H243.7V13.2113C243.897 13.2527 244.079 13.349 244.224 13.4893C244.334 13.6311 244.387 13.8091 244.374 13.9885V26.2785C244.387 26.458 244.334 26.6359 244.224 26.7778C244.077 26.9158 243.896 27.0117 243.7 27.0557V27.3973H256.737C256.91 27.3849 257.082 27.4391 257.218 27.5489C257.354 27.6981 257.449 27.8812 257.493 28.0796H257.83V24.3259H257.493C257.45 24.5229 257.355 24.7044 257.218 24.8504" fill="white"/>
<path d="M279.633 24.8513C279.492 24.962 279.317 25.016 279.139 25.0029H270.32V13.9864C270.308 13.8052 270.361 13.6258 270.47 13.4811C270.614 13.3406 270.797 13.2461 270.994 13.2092V12.8706H266.515V13.2142C266.712 13.2556 266.894 13.3519 267.039 13.4922C267.149 13.6341 267.202 13.812 267.189 13.9915V26.2814C267.202 26.4609 267.149 26.6388 267.039 26.7807C266.892 26.9187 266.711 27.0146 266.515 27.0586V27.4003H279.139C279.317 27.3871 279.492 27.4412 279.633 27.5519C279.771 27.6994 279.866 27.8831 279.907 28.0825H280.245V24.3257H279.907C279.862 24.5218 279.768 24.7037 279.633 24.8513Z" fill="white"/>
<path d="M298.772 24.4784C297.883 24.8774 296.913 25.0552 295.942 24.9969H292.008V15.2599H295.943C296.719 15.234 297.494 15.3323 298.24 15.551C298.809 15.7424 299.317 16.0827 299.714 16.5374C300.505 17.5536 300.895 18.8314 300.807 20.1223C300.813 22.2842 300.132 23.7325 298.777 24.4784M303.237 16.3929C302.634 15.0799 301.569 14.041 300.251 13.4781C298.955 13.0154 297.583 12.8095 296.21 12.8717H288.203V13.2143C288.4 13.2557 288.582 13.352 288.727 13.4922C288.837 13.6341 288.89 13.812 288.877 13.9915V26.2815C288.89 26.4609 288.837 26.6389 288.727 26.7808C288.58 26.9187 288.399 27.0146 288.203 27.0587V27.4003H296.202C297.303 27.425 298.404 27.3061 299.475 27.0466C300.301 26.8249 301.068 26.4188 301.718 25.858C302.499 25.1397 303.11 24.252 303.505 23.2613C303.9 22.2706 304.068 21.2024 303.998 20.1365C304.028 18.847 303.765 17.5677 303.23 16.397" fill="white"/>
<path d="M194.931 17.5131L196.643 14.0929L196.349 13.9352C196.211 14.0737 196.03 14.1606 195.837 14.1818C195.578 14.1313 195.326 14.0485 195.087 13.9352C194.127 13.5078 193.135 13.159 192.12 12.8922C191.278 12.6972 190.417 12.6019 189.553 12.6082C187.771 12.4721 186.007 13.0409 184.631 14.195C184.222 14.585 183.899 15.0581 183.684 15.5833C183.469 16.1085 183.366 16.6738 183.382 17.2422C183.367 17.9347 183.538 18.6184 183.875 19.2211C184.221 19.8433 184.746 20.344 185.381 20.6563C185.809 20.876 186.262 21.0417 186.73 21.1495C187.49 21.2961 188.256 21.4038 189.027 21.4719L190.644 21.6427C191.379 21.6959 192.105 21.8273 192.812 22.0349C193.034 22.0975 193.23 22.2324 193.369 22.4187C193.508 22.605 193.582 22.8325 193.58 23.0658C193.576 23.3994 193.462 23.7221 193.256 23.9825C193.025 24.2866 192.725 24.5294 192.381 24.69C191.631 25.0273 190.816 25.1913 189.995 25.17C189.074 25.1587 188.161 25.0074 187.284 24.7213C186.515 24.5198 185.796 24.158 185.173 23.6591C185.039 23.5537 184.929 23.4198 184.851 23.2669C184.774 23.1139 184.73 22.9456 184.724 22.7737V22.6342L184.417 22.4826L182.861 26.0483L183.168 26.206C183.286 26.0869 183.436 26.0057 183.599 25.9725C183.845 26.0361 184.082 26.1294 184.305 26.2505C186.048 27.1475 187.973 27.6216 189.927 27.6351C190.932 27.6411 191.932 27.5092 192.901 27.243C193.957 27.0063 194.914 26.4454 195.643 25.637C196.281 24.8789 196.629 23.9141 196.624 22.9182C196.627 22.2878 196.486 21.6651 196.211 21.099C195.953 20.5539 195.565 20.0825 195.081 19.7275C194.589 19.3812 194.045 19.1186 193.469 18.9503C192.69 18.7342 191.894 18.5881 191.09 18.5137L189.441 18.3429C188.712 18.2889 187.987 18.1812 187.273 18.0204C186.623 17.8244 186.292 17.4514 186.292 16.9087C186.296 16.5625 186.433 16.2313 186.674 15.9859C186.949 15.6887 187.295 15.4687 187.68 15.3472C188.317 15.1528 188.981 15.059 189.647 15.0692C191.212 15.034 192.748 15.496 194.041 16.3902C194.447 16.6681 194.653 16.9279 194.653 17.1674C194.653 17.2119 194.647 17.2685 194.64 17.3382L194.931 17.5131Z" fill="white"/>
<path d="M42.394 8.26212C42.7995 8.37755 43.198 8.51692 43.5874 8.67953C44.592 9.04809 45.4689 9.70483 46.1108 10.5695C46.2689 11.7937 46.3483 13.027 46.3484 14.2616L46.5791 14.495H48.053L48.3087 14.2616C48.3479 11.989 48.5757 9.72387 48.9897 7.48995L48.8269 6.92093C47.179 6.09783 45.4012 5.57376 43.5744 5.37256L42.394 8.26212Z" fill="white"/>
<path d="M49.6648 23.1376C48.8063 21.8562 47.5587 20.8929 46.1108 20.3935C45.285 20.082 44.4317 19.8512 43.5624 19.7042C42.0619 19.4394 41.1498 19.2814 40.8263 19.2302C39.8077 19.0655 38.909 18.9018 38.1301 18.731L35.6815 24.7496C36.5184 24.9265 37.4371 25.0912 38.4367 25.2489C39.812 25.4049 41.1576 25.7627 42.431 26.3111C43.2262 26.6996 43.8891 27.319 44.3351 28.0904C44.7811 28.8617 44.9901 29.7499 44.9355 30.6419C44.9296 31.8606 44.6158 33.0575 44.0237 34.1187C42.8368 36.2937 40.7004 37.3832 37.6148 37.3872C35.9745 37.3864 34.3572 36.9966 32.8925 36.2492C32.3593 35.985 31.8512 35.6717 31.3746 35.3133L29.9077 38.9296C32.1628 39.7187 34.5317 40.1235 36.9178 40.1272C39.2397 40.1847 41.5503 39.783 43.7202 38.9447C45.7245 38.1443 47.4665 36.7905 48.7481 35.0374C50.2134 33.052 50.9862 30.6304 50.945 28.1526C51.0118 26.3908 50.5667 24.6479 49.6648 23.1396" fill="white"/>
<path d="M32.9534 17.7191C29.8005 9.72182 27.5737 3.85713 26.2728 0.125H24.1239C23.8243 0.946689 23.4249 1.97759 22.9056 3.22276L20.1445 9.99437C18.9575 12.8512 18.0678 14.9878 17.4753 16.4042L14.5294 23.573L13.1554 17.1682C12.5622 14.3929 12.1498 12.3826 11.9181 11.1375L11.1253 6.80666C10.9209 5.83023 10.7738 4.8424 10.6849 3.84837C10.6716 3.69231 10.6896 3.53514 10.7378 3.38629C10.786 3.23745 10.8635 3.1 10.9655 2.98221C11.3099 2.74427 11.7169 2.61646 12.1338 2.61533C12.271 2.59647 12.8701 2.5648 13.9313 2.52033L14.169 2.30505V0.789022L13.9103 0.554542C10.6682 0.649547 8.20506 0.696039 6.52078 0.694017C5.10378 0.694017 3.01074 0.649547 0.255638 0.554542L0 0.814289V2.30606L0.237664 2.52134C0.849086 2.54665 1.45838 2.6101 2.06208 2.71135C2.63627 2.83769 3.08064 3.40064 3.3922 4.39314C3.536 4.82268 3.7487 5.72724 4.04827 7.12199L9.8261 34.2691H13.2433L14.2728 31.6585C15.3659 28.8831 16.2154 26.7694 16.8212 25.3174L22.9236 10.6695C23.2361 11.5357 23.5417 12.3574 23.8353 13.1285L25.1724 16.5113C26.422 19.7037 27.7607 23.2165 29.1887 27.0497L32.9534 17.7191Z" fill="white"/>
<path d="M42.2194 0.130859L25.9604 40.0672H27.5162L43.7693 0.130859H42.2194Z" fill="white"/>
</g>
</svg>
