<svg width="21" height="21" viewBox="0 0 21 21" fill="none" xmlns="http://www.w3.org/2000/svg">
<path d="M18.3227 17.4168L13.6194 12.7139C14.6877 11.4132 15.2146 9.75133 15.0909 8.07267C14.9672 6.39401 14.2024 4.82726 12.9549 3.6971C11.7075 2.56693 10.0731 1.95999 8.39038 2.00205C6.70768 2.04411 5.10569 2.73194 3.91639 3.92301C2.72709 5.11408 2.04166 6.71708 2.00213 8.39982C1.9626 10.0826 2.57201 11.716 3.70406 12.9617C4.83612 14.2075 6.40404 14.9699 8.0829 15.0911C9.76177 15.2123 11.4229 14.6829 12.722 13.6127L17.4252 18.3156L18.3227 17.4168ZM4.80915 12.288C3.94285 11.4219 3.40369 10.2821 3.28355 9.06298C3.16341 7.84387 3.46972 6.62084 4.15029 5.60229C4.83086 4.58375 5.84356 3.83272 7.01585 3.47718C8.18813 3.12164 9.44745 3.18359 10.5792 3.65248C11.711 4.12136 12.6452 4.96817 13.2226 6.0486C13.8 7.12903 13.9849 8.37623 13.7458 9.57767C13.5067 10.7791 12.8584 11.8604 11.9113 12.6374C10.9642 13.4144 9.77705 13.8389 8.55202 13.8387C7.1483 13.8378 5.80221 13.2802 4.80915 12.288Z" fill="white"/>
</svg>
